<?xml version="1.0" encoding="UTF-8"?><svg id="_レイヤー_2" xmlns="http://www.w3.org/2000/svg" viewBox="0 0 591.793 134.685"><defs><style>.cls-1{fill:#fff;stroke-width:0px;}</style></defs><g id="hero"><polygon class="cls-1" points="337.663 21.559 372.076 21.567 372.161 .868 316.965 .86 316.965 88.831 372.161 88.839 372.076 68.14 337.663 68.132 337.663 55.195 337.663 55.194 372.161 55.199 372.161 34.508 337.663 34.502 337.663 34.496 337.663 21.559"/><polygon class="cls-1" points="46.2 44.846 20.805 .86 0 .86 0 88.831 20.698 88.831 20.698 42.071 46.2 86.242 71.704 42.071 71.704 88.831 92.402 88.831 92.402 .86 71.595 .86 46.2 44.846"/><path class="cls-1" d="M255.053,61.23c0,4.279-3.482,7.761-7.762,7.761h-5.174c-4.28,0-7.764-3.482-7.764-7.761V.86h-20.698v62.957c0,14.266,11.606,25.874,25.873,25.874h10.349c14.267,0,25.873-11.607,25.873-25.874V.86h-20.698v60.37Z"/><path class="cls-1" d="M496.926.865h-36.222v87.972h20.698v-20.699h15.524c14.267,0,25.873-11.607,25.873-25.874v-15.525c0-14.266-11.606-25.874-25.873-25.874ZM481.402,21.564h12.937c4.28,0,7.762,3.482,7.762,7.762v10.35c0,4.28-3.482,7.762-7.762,7.762h-12.937v-25.874Z"/><polygon class="cls-1" points="147.598 .855 147.598 34.476 167.02 .835 147.598 .855"/><polygon class="cls-1" points="147.598 88.811 167.02 88.831 147.598 55.191 147.598 88.811"/><path class="cls-1" d="M565.92,0h-10.349c-14.267,0-25.873,11.607-25.873,25.874v37.954c0,14.266,11.606,25.874,25.873,25.874h10.349c14.267,0,25.873-11.607,25.873-25.874V25.874c0-14.266-11.606-25.874-25.873-25.874ZM571.096,28.462v32.779c0,4.28-3.482,7.761-7.762,7.761h-5.173c-4.28,0-7.764-3.482-7.764-7.761V28.462c0-4.28,3.483-7.762,7.764-7.762h5.173c4.28,0,7.762,3.482,7.762,7.762Z"/><polygon class="cls-1" points="99.301 56.486 113.1 56.486 113.1 64.248 99.301 64.248 99.301 70.814 113.1 70.814 113.1 78.576 99.301 78.576 99.301 88.831 126.899 88.831 126.899 .86 99.301 .86 99.301 56.486"/><polygon class="cls-1" points="188.645 .86 163.243 44.857 188.631 88.831 210.192 88.831 184.805 44.857 210.206 .86 188.645 .86"/><polygon class="cls-1" points="429.905 .865 416.458 24.156 403.009 .86 379.108 .867 429.903 88.839 453.805 88.839 428.409 44.853 453.805 .868 429.905 .865"/><polygon class="cls-1" points="379.113 88.838 408.334 88.839 393.723 63.532 379.113 88.838"/><path class="cls-1" d="M169.549,126.699l7.695-24.852c.071-.283.283-.423.565-.423h5.825c.283,0,.494.14.566.423l7.801,24.852c.106.317-.07.565-.423.565h-4.59c-.282,0-.494-.141-.565-.423l-1.623-5.402h-8.261l-1.623,5.402c-.071.282-.283.423-.565.423h-4.378c-.353,0-.529-.247-.423-.565ZM183.281,116.462l-.529-1.729c-.777-2.648-1.518-5.366-1.978-7.731h-.14c-.424,1.976-1.272,5.259-2.048,7.801l-.494,1.659h5.189Z"/><path class="cls-1" d="M216.595,126.77v-18.567c0-.319.176-.494.494-.494h4.2c.319,0,.494.176.494.494v1.871c1.306-1.836,3.107-2.789,5.402-2.789,3.883,0,6.106,2.789,6.106,7.802v11.684c0,.319-.176.494-.494.494h-4.341c-.317,0-.494-.176-.494-.494v-11.684c0-2.048-.989-3.142-2.541-3.142-1.589,0-2.895,1.165-3.46,2.824v12.002c0,.319-.177.494-.494.494h-4.377c-.319,0-.494-.176-.494-.494Z"/><path class="cls-1" d="M259.546,126.77v-18.567c0-.319.176-.494.494-.494h4.2c.319,0,.494.176.494.494v1.871c1.306-1.836,3.107-2.789,5.402-2.789,3.883,0,6.106,2.789,6.106,7.802v11.684c0,.319-.176.494-.494.494h-4.341c-.317,0-.494-.176-.494-.494v-11.684c0-2.048-.989-3.142-2.541-3.142-1.589,0-2.895,1.165-3.46,2.824v12.002c0,.319-.177.494-.494.494h-4.377c-.319,0-.494-.176-.494-.494Z"/><path class="cls-1" d="M302.497,104.601v-3.813c0-.317.176-.494.494-.494h4.377c.317,0,.494.177.494.494v3.813c0,.317-.177.494-.494.494h-4.377c-.319,0-.494-.177-.494-.494ZM302.497,126.77v-18.567c0-.319.176-.494.494-.494h4.377c.317,0,.494.176.494.494v18.567c0,.319-.177.494-.494.494h-4.377c-.319,0-.494-.176-.494-.494Z"/><path class="cls-1" d="M338.496,126.841l-5.966-18.569c-.106-.317.071-.565.424-.565h4.66c.282,0,.459.141.529.423l2.048,7.237c.812,2.895,1.412,5.755,1.695,7.555h.07c.283-2.118.883-4.801,1.659-7.555l2.048-7.237c.07-.282.247-.423.529-.423h4.484c.353,0,.529.247.423.565l-6.072,18.604c-.07.246-.282.387-.565.387h-5.402c-.282,0-.493-.176-.565-.423Z"/><path class="cls-1" d="M375.201,119.604v-4.024c0-5.26,3.105-8.297,8.401-8.297s8.366,3.037,8.366,8.297v3.035c0,.317-.176.494-.493.494h-11.191v.494c0,2.365,1.376,3.706,3.6,3.706,1.66,0,2.684-.706,3.284-2.012.141-.317.317-.423.636-.317l3.671,1.059c.282.071.423.283.353.53-.989,3.318-3.707,5.119-7.908,5.119-5.366,0-8.719-2.895-8.719-8.084ZM387.096,115.65v-.494c0-2.154-1.199-3.565-3.388-3.565s-3.424,1.412-3.424,3.565v.494h6.812Z"/><path class="cls-1" d="M417.658,126.77v-18.567c0-.319.176-.494.494-.494h4.2c.319,0,.494.176.494.494v2.505c.989-1.694,2.789-3.283,5.93-3.247.319,0,.494.176.494.494v4.024c0,.317-.176.494-.529.459-3.037-.141-4.837.67-5.719,2.788v11.544c0,.319-.177.494-.494.494h-4.377c-.319,0-.494-.176-.494-.494Z"/><path class="cls-1" d="M452.773,122.922c-.07-.283.036-.494.283-.636l3.283-1.589c.283-.14.53-.034.636.283.494,1.623,1.941,2.612,3.989,2.612,1.906,0,3.071-.67,3.071-1.835,0-1.095-.812-1.448-5.189-2.578-3.636-.953-5.472-2.648-5.472-5.753,0-3.742,3.037-6.143,7.59-6.143,3.99,0,6.884,1.765,7.943,4.837.107.282-.034.529-.317.635l-3.424,1.2c-.283.106-.53,0-.636-.317-.459-1.412-1.659-2.224-3.388-2.224-1.659,0-2.648.635-2.648,1.623,0,1.023.742,1.342,4.448,2.329,4.341,1.165,6.178,2.965,6.178,6.143,0,3.777-3.107,6.178-8.155,6.178-4.271,0-7.237-1.73-8.19-4.766Z"/><path class="cls-1" d="M504.762,126.77v-2.082c-1.165,1.835-3.035,3.001-5.472,3.001-3.565,0-5.93-2.401-5.93-6.072,0-3.495,2.259-5.966,8.261-5.966h2.93v-1.518c0-1.872-.953-2.612-2.612-2.612-1.623,0-2.365.74-2.824,1.871-.106.317-.317.423-.6.353l-4.024-1.059c-.283-.071-.424-.283-.353-.565.812-2.825,3.283-4.837,7.943-4.837,4.942,0,7.661,2.331,7.661,6.708v12.778c0,.319-.177.494-.494.494h-3.99c-.317,0-.494-.176-.494-.494ZM500.843,123.451c1.73,0,3.072-.988,3.707-2.788v-1.695h-2.93c-2.118,0-3.212.812-3.212,2.329,0,1.377.917,2.154,2.435,2.154Z"/><path class="cls-1" d="M535.994,126.77v-18.567c0-.319.176-.494.494-.494h4.2c.319,0,.494.176.494.494v2.505c.989-1.694,2.789-3.283,5.93-3.247.319,0,.494.176.494.494v4.024c0,.317-.176.494-.529.459-3.037-.141-4.837.67-5.719,2.788v11.544c0,.319-.177.494-.494.494h-4.377c-.319,0-.494-.176-.494-.494Z"/><path class="cls-1" d="M572.98,131.006c2.189-1.695,3.637-2.718,4.413-5.19l-6.989-17.544c-.141-.317.036-.565.389-.565h4.766c.282,0,.459.141.565.387l1.765,5.154c.812,2.331,1.659,4.836,2.189,7.625h.106c.565-2.895,1.2-4.66,2.118-7.625l1.589-5.119c.07-.282.282-.423.565-.423h4.483c.353,0,.494.247.389.565l-6.213,16.838c-1.235,3.46-2.965,7.025-6.672,9.461-.247.176-.494.141-.706-.071l-2.788-2.788c-.213-.212-.247-.494.034-.706Z"/><path class="cls-1" d="M10.67,127.264h-4.128c-.74,0-1.168-.428-1.168-1.206v-16.628h-.078l-3.076,1.401c-.74.351-1.285.039-1.48-.778l-.74-3.466,6.659-2.726h4.011v23.403Z"/><path class="cls-1" d="M44.083,111.416v8.216c0,5.413-2.648,8.099-7.555,8.099s-7.593-2.686-7.593-8.099v-8.216c0-5.453,2.764-8.022,7.593-8.022,4.79,0,7.555,2.569,7.555,8.022ZM34.27,111.026v9.035c0,2.102.74,2.959,2.259,2.959,1.48,0,2.259-.857,2.259-2.959v-9.035c0-2.102-.779-2.92-2.259-2.92-1.519,0-2.259.818-2.259,2.92Z"/><path class="cls-1" d="M69.085,121.708v-9.532h-2.329c-.318,0-.494-.176-.494-.493v-3.318c0-.319.176-.494.494-.494h2.329v-4.166c0-.319.177-.494.494-.494h4.236c.318,0,.494.176.494.494v4.166h3.706c.318,0,.494.176.494.494v3.318c0,.317-.176.493-.494.493h-3.706v8.826c0,1.165.706,1.765,2.047,1.765h1.659c.318,0,.494.177.494.494v3.671c0,.319-.176.494-.494.494h-2.506c-4.059,0-6.425-2.082-6.425-5.719Z"/><path class="cls-1" d="M103.883,126.932v-25.981c0-.317.176-.494.494-.494h4.377c.318,0,.494.177.494.494v9.107c1.306-1.729,3.036-2.612,5.225-2.612,3.883,0,6.107,2.789,6.107,7.802v11.684c0,.319-.176.494-.494.494h-4.341c-.318,0-.494-.176-.494-.494v-11.684c0-2.048-.989-3.142-2.542-3.142-1.589,0-2.895,1.165-3.46,2.824v12.002c0,.319-.176.494-.494.494h-4.377c-.318,0-.494-.176-.494-.494Z"/></g></svg>