<svg id="visual" viewBox="0 0 1960 540" width="1960" height="540" xmlns="http://www.w3.org/2000/svg" xmlns:xlink="http://www.w3.org/1999/xlink" version="1.1"><rect x="0" y="0" width="1960" height="540" fill="#E90064"></rect><path d="M0 300L27.2 293.2C54.3 286.3 108.7 272.7 163.2 269.8C217.7 267 272.3 275 326.8 279.5C381.3 284 435.7 285 490 304.8C544.3 324.7 598.7 363.3 653.2 367.7C707.7 372 762.3 342 816.8 345C871.3 348 925.7 384 980 388.5C1034.3 393 1088.7 366 1143.2 366.2C1197.7 366.3 1252.3 393.7 1306.8 387.5C1361.3 381.3 1415.7 341.7 1470 319.2C1524.3 296.7 1578.7 291.3 1633.2 298.3C1687.7 305.3 1742.3 324.7 1796.8 321.8C1851.3 319 1905.7 294 1932.8 281.5L1960 269L1960 0L1932.8 0C1905.7 0 1851.3 0 1796.8 0C1742.3 0 1687.7 0 1633.2 0C1578.7 0 1524.3 0 1470 0C1415.7 0 1361.3 0 1306.8 0C1252.3 0 1197.7 0 1143.2 0C1088.7 0 1034.3 0 980 0C925.7 0 871.3 0 816.8 0C762.3 0 707.7 0 653.2 0C598.7 0 544.3 0 490 0C435.7 0 381.3 0 326.8 0C272.3 0 217.7 0 163.2 0C108.7 0 54.3 0 27.2 0L0 0Z" fill="#e90064"></path><path d="M0 208L27.2 226.7C54.3 245.3 108.7 282.7 163.2 303C217.7 323.3 272.3 326.7 326.8 308.8C381.3 291 435.7 252 490 256.5C544.3 261 598.7 309 653.2 307.2C707.7 305.3 762.3 253.7 816.8 227.3C871.3 201 925.7 200 980 209.2C1034.3 218.3 1088.7 237.7 1143.2 259.8C1197.7 282 1252.3 307 1306.8 325.8C1361.3 344.7 1415.7 357.3 1470 351.3C1524.3 345.3 1578.7 320.7 1633.2 303.2C1687.7 285.7 1742.3 275.3 1796.8 284.3C1851.3 293.3 1905.7 321.7 1932.8 335.8L1960 350L1960 0L1932.8 0C1905.7 0 1851.3 0 1796.8 0C1742.3 0 1687.7 0 1633.2 0C1578.7 0 1524.3 0 1470 0C1415.7 0 1361.3 0 1306.8 0C1252.3 0 1197.7 0 1143.2 0C1088.7 0 1034.3 0 980 0C925.7 0 871.3 0 816.8 0C762.3 0 707.7 0 653.2 0C598.7 0 544.3 0 490 0C435.7 0 381.3 0 326.8 0C272.3 0 217.7 0 163.2 0C108.7 0 54.3 0 27.2 0L0 0Z" fill="#b6006b"></path><path d="M0 268L27.2 260.7C54.3 253.3 108.7 238.7 163.2 233.2C217.7 227.7 272.3 231.3 326.8 228.7C381.3 226 435.7 217 490 219C544.3 221 598.7 234 653.2 226.7C707.7 219.3 762.3 191.7 816.8 174.5C871.3 157.3 925.7 150.7 980 151.3C1034.3 152 1088.7 160 1143.2 165C1197.7 170 1252.3 172 1306.8 182.7C1361.3 193.3 1415.7 212.7 1470 229.5C1524.3 246.3 1578.7 260.7 1633.2 268.3C1687.7 276 1742.3 277 1796.8 266.8C1851.3 256.7 1905.7 235.3 1932.8 224.7L1960 214L1960 0L1932.8 0C1905.7 0 1851.3 0 1796.8 0C1742.3 0 1687.7 0 1633.2 0C1578.7 0 1524.3 0 1470 0C1415.7 0 1361.3 0 1306.8 0C1252.3 0 1197.7 0 1143.2 0C1088.7 0 1034.3 0 980 0C925.7 0 871.3 0 816.8 0C762.3 0 707.7 0 653.2 0C598.7 0 544.3 0 490 0C435.7 0 381.3 0 326.8 0C272.3 0 217.7 0 163.2 0C108.7 0 54.3 0 27.2 0L0 0Z" fill="#800067"></path><path d="M0 140L27.2 136.3C54.3 132.7 108.7 125.3 163.2 133.3C217.7 141.3 272.3 164.7 326.8 173.3C381.3 182 435.7 176 490 171C544.3 166 598.7 162 653.2 158.5C707.7 155 762.3 152 816.8 140.5C871.3 129 925.7 109 980 116C1034.3 123 1088.7 157 1143.2 170.3C1197.7 183.7 1252.3 176.3 1306.8 171.2C1361.3 166 1415.7 163 1470 153C1524.3 143 1578.7 126 1633.2 122.8C1687.7 119.7 1742.3 130.3 1796.8 137.8C1851.3 145.3 1905.7 149.7 1932.8 151.8L1960 154L1960 0L1932.8 0C1905.7 0 1851.3 0 1796.8 0C1742.3 0 1687.7 0 1633.2 0C1578.7 0 1524.3 0 1470 0C1415.7 0 1361.3 0 1306.8 0C1252.3 0 1197.7 0 1143.2 0C1088.7 0 1034.3 0 980 0C925.7 0 871.3 0 816.8 0C762.3 0 707.7 0 653.2 0C598.7 0 544.3 0 490 0C435.7 0 381.3 0 326.8 0C272.3 0 217.7 0 163.2 0C108.7 0 54.3 0 27.2 0L0 0Z" fill="#48025a"></path><path d="M0 88L27.2 96.8C54.3 105.7 108.7 123.3 163.2 118.3C217.7 113.3 272.3 85.7 326.8 78.7C381.3 71.7 435.7 85.3 490 93.5C544.3 101.7 598.7 104.3 653.2 100C707.7 95.7 762.3 84.3 816.8 83.7C871.3 83 925.7 93 980 89.2C1034.3 85.3 1088.7 67.7 1143.2 69.5C1197.7 71.3 1252.3 92.7 1306.8 107.2C1361.3 121.7 1415.7 129.3 1470 126C1524.3 122.7 1578.7 108.3 1633.2 95.5C1687.7 82.7 1742.3 71.3 1796.8 62.3C1851.3 53.3 1905.7 46.7 1932.8 43.3L1960 40L1960 0L1932.8 0C1905.7 0 1851.3 0 1796.8 0C1742.3 0 1687.7 0 1633.2 0C1578.7 0 1524.3 0 1470 0C1415.7 0 1361.3 0 1306.8 0C1252.3 0 1197.7 0 1143.2 0C1088.7 0 1034.3 0 980 0C925.7 0 871.3 0 816.8 0C762.3 0 707.7 0 653.2 0C598.7 0 544.3 0 490 0C435.7 0 381.3 0 326.8 0C272.3 0 217.7 0 163.2 0C108.7 0 54.3 0 27.2 0L0 0Z" fill="#060045"></path></svg>