<svg id="visual" viewBox="0 0 1960 540" width="1960" height="540" xmlns="http://www.w3.org/2000/svg" xmlns:xlink="http://www.w3.org/1999/xlink" version="1.1"><rect x="0" y="0" width="1960" height="540" fill="#151414"></rect><path d="M0 141L23.3 144.2C46.7 147.3 93.3 153.7 140 152.2C186.7 150.7 233.3 141.3 280 138.7C326.7 136 373.3 140 420 144.3C466.7 148.7 513.3 153.3 560 153.5C606.7 153.7 653.3 149.3 700 151.2C746.7 153 793.3 161 840 160.8C886.7 160.7 933.3 152.3 980 154.3C1026.7 156.3 1073.3 168.7 1120 171.5C1166.7 174.3 1213.3 167.7 1260 165.7C1306.7 163.7 1353.3 166.3 1400 164.2C1446.7 162 1493.3 155 1540 153C1586.7 151 1633.3 154 1680 158.3C1726.7 162.7 1773.3 168.3 1820 170.5C1866.7 172.7 1913.3 171.3 1936.7 170.7L1960 170L1960 0L1936.7 0C1913.3 0 1866.7 0 1820 0C1773.3 0 1726.7 0 1680 0C1633.3 0 1586.7 0 1540 0C1493.3 0 1446.7 0 1400 0C1353.3 0 1306.7 0 1260 0C1213.3 0 1166.7 0 1120 0C1073.3 0 1026.7 0 980 0C933.3 0 886.7 0 840 0C793.3 0 746.7 0 700 0C653.3 0 606.7 0 560 0C513.3 0 466.7 0 420 0C373.3 0 326.7 0 280 0C233.3 0 186.7 0 140 0C93.3 0 46.7 0 23.3 0L0 0Z" fill="#e90064"></path><path d="M0 131L23.3 126C46.7 121 93.3 111 140 113.2C186.7 115.3 233.3 129.7 280 135.7C326.7 141.7 373.3 139.3 420 138.7C466.7 138 513.3 139 560 139.7C606.7 140.3 653.3 140.7 700 135.7C746.7 130.7 793.3 120.3 840 117.8C886.7 115.3 933.3 120.7 980 125.5C1026.7 130.3 1073.3 134.7 1120 134.5C1166.7 134.3 1213.3 129.7 1260 124.7C1306.7 119.7 1353.3 114.3 1400 111.8C1446.7 109.3 1493.3 109.7 1540 109.3C1586.7 109 1633.3 108 1680 114.3C1726.7 120.7 1773.3 134.3 1820 139.5C1866.7 144.7 1913.3 141.3 1936.7 139.7L1960 138L1960 0L1936.7 0C1913.3 0 1866.7 0 1820 0C1773.3 0 1726.7 0 1680 0C1633.3 0 1586.7 0 1540 0C1493.3 0 1446.7 0 1400 0C1353.3 0 1306.7 0 1260 0C1213.3 0 1166.7 0 1120 0C1073.3 0 1026.7 0 980 0C933.3 0 886.7 0 840 0C793.3 0 746.7 0 700 0C653.3 0 606.7 0 560 0C513.3 0 466.7 0 420 0C373.3 0 326.7 0 280 0C233.3 0 186.7 0 140 0C93.3 0 46.7 0 23.3 0L0 0Z" fill="#b7006b"></path><path d="M0 91L23.3 93.5C46.7 96 93.3 101 140 100.3C186.7 99.7 233.3 93.3 280 91.8C326.7 90.3 373.3 93.7 420 94.2C466.7 94.7 513.3 92.3 560 88.5C606.7 84.7 653.3 79.3 700 76.7C746.7 74 793.3 74 840 75.3C886.7 76.7 933.3 79.3 980 83.5C1026.7 87.7 1073.3 93.3 1120 98.8C1166.7 104.3 1213.3 109.7 1260 107.5C1306.7 105.3 1353.3 95.7 1400 92.8C1446.7 90 1493.3 94 1540 94C1586.7 94 1633.3 90 1680 93.5C1726.7 97 1773.3 108 1820 110.2C1866.7 112.3 1913.3 105.7 1936.7 102.3L1960 99L1960 0L1936.7 0C1913.3 0 1866.7 0 1820 0C1773.3 0 1726.7 0 1680 0C1633.3 0 1586.7 0 1540 0C1493.3 0 1446.7 0 1400 0C1353.3 0 1306.7 0 1260 0C1213.3 0 1166.7 0 1120 0C1073.3 0 1026.7 0 980 0C933.3 0 886.7 0 840 0C793.3 0 746.7 0 700 0C653.3 0 606.7 0 560 0C513.3 0 466.7 0 420 0C373.3 0 326.7 0 280 0C233.3 0 186.7 0 140 0C93.3 0 46.7 0 23.3 0L0 0Z" fill="#810067"></path><path d="M0 51L23.3 56.3C46.7 61.7 93.3 72.3 140 71.8C186.7 71.3 233.3 59.7 280 57.8C326.7 56 373.3 64 420 64.2C466.7 64.3 513.3 56.7 560 57.3C606.7 58 653.3 67 700 70.3C746.7 73.7 793.3 71.3 840 69.7C886.7 68 933.3 67 980 65.5C1026.7 64 1073.3 62 1120 60C1166.7 58 1213.3 56 1260 59.3C1306.7 62.7 1353.3 71.3 1400 71.7C1446.7 72 1493.3 64 1540 63C1586.7 62 1633.3 68 1680 68C1726.7 68 1773.3 62 1820 59.3C1866.7 56.7 1913.3 57.3 1936.7 57.7L1960 58L1960 0L1936.7 0C1913.3 0 1866.7 0 1820 0C1773.3 0 1726.7 0 1680 0C1633.3 0 1586.7 0 1540 0C1493.3 0 1446.7 0 1400 0C1353.3 0 1306.7 0 1260 0C1213.3 0 1166.7 0 1120 0C1073.3 0 1026.7 0 980 0C933.3 0 886.7 0 840 0C793.3 0 746.7 0 700 0C653.3 0 606.7 0 560 0C513.3 0 466.7 0 420 0C373.3 0 326.7 0 280 0C233.3 0 186.7 0 140 0C93.3 0 46.7 0 23.3 0L0 0Z" fill="#49015b"></path><path d="M0 42L23.3 42.5C46.7 43 93.3 44 140 41.8C186.7 39.7 233.3 34.3 280 31.2C326.7 28 373.3 27 420 30.2C466.7 33.3 513.3 40.7 560 41.3C606.7 42 653.3 36 700 36.3C746.7 36.7 793.3 43.3 840 43.3C886.7 43.3 933.3 36.7 980 33.5C1026.7 30.3 1073.3 30.7 1120 31.8C1166.7 33 1213.3 35 1260 38.3C1306.7 41.7 1353.3 46.3 1400 43.3C1446.7 40.3 1493.3 29.7 1540 29.8C1586.7 30 1633.3 41 1680 45C1726.7 49 1773.3 46 1820 43.3C1866.7 40.7 1913.3 38.3 1936.7 37.2L1960 36L1960 0L1936.7 0C1913.3 0 1866.7 0 1820 0C1773.3 0 1726.7 0 1680 0C1633.3 0 1586.7 0 1540 0C1493.3 0 1446.7 0 1400 0C1353.3 0 1306.7 0 1260 0C1213.3 0 1166.7 0 1120 0C1073.3 0 1026.7 0 980 0C933.3 0 886.7 0 840 0C793.3 0 746.7 0 700 0C653.3 0 606.7 0 560 0C513.3 0 466.7 0 420 0C373.3 0 326.7 0 280 0C233.3 0 186.7 0 140 0C93.3 0 46.7 0 23.3 0L0 0Z" fill="#060047"></path></svg>